# xmcd CD database file
#
# Track frame offsets:
#	150
#	33865
#	69635
#	114185
#	139952
#	158682
#	181467
#	217037
#	236987
#	256987
#
# Disc length: 3705 seconds
#
# Revision: 0
# Processed by: cddbd v1.5.2PL0 Copyright (c) Steve Scherf et al.
# Submitted via: CDex 1.70beta2
#
DISCID=8e0e770a
DTITLE=Keezer, Geoff - Here and now
DYEAR=1990
DGENRE=Jazz
TTITLE0=There but for the grace of
TTITLE1=Headed off at the pass
TTITLE2=Leilani's mirror
TTITLE3=Agra
TTITLE4=(It was) just one of these things
TTITLE5=It's the thought that counts
TTITLE6=The feeling of Jazz
TTITLE7=Turning point
TTITLE8=It never entered my mind
TTITLE9=Scandal in Shinjuku
EXTD=YEAR: 1990
EXTT0=
EXTT1=
EXTT2=
EXTT3=
EXTT4=
EXTT5=
EXTT6=
EXTT7=
EXTT8=
EXTT9=
PLAYORDER=
